<svg xmlns="http://www.w3.org/2000/svg" xlink="http://www.w3.org/1999/xlink" width="0" height="0" style="display:none;"><symbol viewBox="0 0 24 24" id="home-line"><path fill="none" d="M0 0h24v24H0z"/><path d="M21 20a1 1 0 0 1-1 1H4a1 1 0 0 1-1-1V9.49a1 1 0 0 1 .386-.79l8-6.222a1 1 0 0 1 1.228 0l8 6.222a1 1 0 0 1 .386.79V20zm-2-1V9.978l-7-5.444-7 5.444V19h14z"/></symbol><symbol viewBox="0 0 24 24" id="home-fill"><path fill="none" d="M0 0h24v24H0z"/><path d="M21 20a1 1 0 0 1-1 1H4a1 1 0 0 1-1-1V9.49a1 1 0 0 1 .386-.79l8-6.222a1 1 0 0 1 1.228 0l8 6.222a1 1 0 0 1 .386.79V20z"/></symbol><symbol viewBox="0 0 24 24" id="store-2-line"><path fill="none" d="M0 0h24v24H0z"/><path d="M21 13.242V20h1v2H2v-2h1v-6.758A4.496 4.496 0 0 1 1 9.5c0-.827.224-1.624.633-2.303L4.345 2.5a1 1 0 0 1 .866-.5H18.79a1 1 0 0 1 .866.5l2.702 4.682A4.496 4.496 0 0 1 21 13.242zm-2 .73a4.496 4.496 0 0 1-3.75-1.36A4.496 4.496 0 0 1 12 14.001a4.496 4.496 0 0 1-3.25-1.387A4.496 4.496 0 0 1 5 13.973V20h14v-6.027zM5.789 4L3.356 8.213a2.5 2.5 0 0 0 4.466 2.216c.335-.837 1.52-.837 1.856 0a2.5 2.5 0 0 0 4.644 0c.335-.837 1.52-.837 1.856 0a2.5 2.5 0 1 0 4.457-2.232L18.21 4H5.79z"/></symbol><symbol viewBox="0 0 24 24" id="mail-send-line"><path fill="none" d="M0 0h24v24H0z"/><path d="M22 20.007a1 1 0 0 1-.992.993H2.992A.993.993 0 0 1 2 20.007V19h18V7.3l-8 7.2-10-9V4a1 1 0 0 1 1-1h18a1 1 0 0 1 1 1v16.007zM4.434 5L12 11.81 19.566 5H4.434zM0 15h8v2H0v-2zm0-5h5v2H0v-2z"/></symbol><symbol viewBox="0 0 24 24" id="bar-chart-horizontal-line"><path fill="none" d="M0 0h24v24H0z"/><path d="M12 3v2H3V3h9zm4 16v2H3v-2h13zm6-8v2H3v-2h19z"/></symbol><symbol viewBox="0 0 24 24" id="bookmark-line"><path fill="none" d="M0 0h24v24H0z"/><path d="M5 2h14a1 1 0 0 1 1 1v19.143a.5.5 0 0 1-.766.424L12 18.03l-7.234 4.536A.5.5 0 0 1 4 22.143V3a1 1 0 0 1 1-1zm13 2H6v15.432l6-3.761 6 3.761V4z"/></symbol><symbol viewBox="0 0 24 24" id="links-line"><path fill="none" d="M0 0h24v24H0z"/><path d="M13.06 8.11l1.415 1.415a7 7 0 0 1 0 9.9l-.354.353a7 7 0 0 1-9.9-9.9l1.415 1.415a5 5 0 1 0 7.071 7.071l.354-.354a5 5 0 0 0 0-7.07l-1.415-1.415 1.415-1.414zm6.718 6.011l-1.414-1.414a5 5 0 1 0-7.071-7.071l-.354.354a5 5 0 0 0 0 7.07l1.415 1.415-1.415 1.414-1.414-1.414a7 7 0 0 1 0-9.9l.354-.353a7 7 0 0 1 9.9 9.9z"/></symbol><symbol viewBox="0 0 24 24" id="send-plane-line"><path fill="none" d="M0 0h24v24H0z"/><path d="M1.923 9.37c-.51-.205-.504-.51.034-.689l19.086-6.362c.529-.176.832.12.684.638l-5.454 19.086c-.15.529-.475.553-.717.07L11 13 1.923 9.37zm4.89-.2l5.636 2.255 3.04 6.082 3.546-12.41L6.812 9.17z"/></symbol><symbol viewBox="0 0 24 24" id="reply-line"><path fill="none" d="M0 0H24V24H0z"/><path d="M11 20L1 12l10-8v5c5.523 0 10 4.477 10 10 0 .273-.01.543-.032.81-1.463-2.774-4.33-4.691-7.655-4.805L13 15h-2v5zm-2-7h4.034l.347.007c1.285.043 2.524.31 3.676.766C15.59 12.075 13.42 11 11 11H9V8.161L4.202 12 9 15.839V13z"/></symbol><symbol viewBox="0 0 24 24" id="reply-fill"><path fill="none" d="M0 0H24V24H0z"/><path d="M11 20L1 12l10-8v5c5.523 0 10 4.477 10 10 0 .273-.01.543-.032.81C19.46 16.95 16.458 15 13 15h-2v5z"/></symbol><symbol viewBox="0 0 24 24" id="send-plane-fill"><path fill="none" d="M0 0h24v24H0z"/><path d="M1.946 9.315c-.522-.174-.527-.455.01-.634l19.087-6.362c.529-.176.832.12.684.638l-5.454 19.086c-.15.529-.455.547-.679.045L12 14l6-8-8 6-8.054-2.685z"/></symbol><symbol viewBox="0 0 24 24" id="send-plane-2-fill"><path fill="none" d="M0 0h24v24H0z"/><path d="M3 13h6v-2H3V1.846a.5.5 0 0 1 .741-.438l18.462 10.154a.5.5 0 0 1 0 .876L3.741 22.592A.5.5 0 0 1 3 22.154V13z"/></symbol><symbol viewBox="0 0 24 24" id="send-plane-2-line"><path fill="none" d="M0 0h24v24H0z"/><path d="M3.741 1.408l18.462 10.154a.5.5 0 0 1 0 .876L3.741 22.592A.5.5 0 0 1 3 22.154V1.846a.5.5 0 0 1 .741-.438zM5 13v6.617L18.85 12 5 4.383V11h5v2H5z"/></symbol><symbol viewBox="0 0 24 24" id="chat-1-line"><path fill="none" d="M0 0h24v24H0z"/><path d="M10 3h4a8 8 0 1 1 0 16v3.5c-5-2-12-5-12-11.5a8 8 0 0 1 8-8zm2 14h2a6 6 0 1 0 0-12h-4a6 6 0 0 0-6 6c0 3.61 2.462 5.966 8 8.48V17z"/></symbol><symbol viewBox="0 0 24 24" id="chat-3-line"><path fill="none" d="M0 0h24v24H0z"/><path d="M7.291 20.824L2 22l1.176-5.291A9.956 9.956 0 0 1 2 12C2 6.477 6.477 2 12 2s10 4.477 10 10-4.477 10-10 10a9.956 9.956 0 0 1-4.709-1.176zm.29-2.113l.653.35A7.955 7.955 0 0 0 12 20a8 8 0 1 0-8-8c0 1.334.325 2.618.94 3.766l.349.653-.655 2.947 2.947-.655z"/></symbol><symbol viewBox="0 0 24 24" id="chat-1-fill"><path fill="none" d="M0 0h24v24H0z"/><path d="M10 3h4a8 8 0 1 1 0 16v3.5c-5-2-12-5-12-11.5a8 8 0 0 1 8-8z"/></symbol><symbol viewBox="0 0 24 24" id="chat-3-fill"><path fill="none" d="M0 0h24v24H0z"/><path d="M7.291 20.824L2 22l1.176-5.291A9.956 9.956 0 0 1 2 12C2 6.477 6.477 2 12 2s10 4.477 10 10-4.477 10-10 10a9.956 9.956 0 0 1-4.709-1.176z"/></symbol><symbol viewBox="0 0 24 24" id="edit-line"><path fill="none" d="M0 0h24v24H0z"/><path d="M6.414 16L16.556 5.858l-1.414-1.414L5 14.586V16h1.414zm.829 2H3v-4.243L14.435 2.322a1 1 0 0 1 1.414 0l2.829 2.829a1 1 0 0 1 0 1.414L7.243 18zM3 20h18v2H3v-2z"/></symbol><symbol viewBox="0 0 24 24" id="pencil-line"><path fill="none" d="M0 0h24v24H0z"/><path d="M15.728 9.686l-1.414-1.414L5 17.586V19h1.414l9.314-9.314zm1.414-1.414l1.414-1.414-1.414-1.414-1.414 1.414 1.414 1.414zM7.242 21H3v-4.243L16.435 3.322a1 1 0 0 1 1.414 0l2.829 2.829a1 1 0 0 1 0 1.414L7.243 21z"/></symbol><symbol viewBox="0 0 24 24" id="shut-down-line"><path fill="none" d="M0 0h24v24H0z"/><path d="M6.265 3.807l1.147 1.639a8 8 0 1 0 9.176 0l1.147-1.639A9.988 9.988 0 0 1 22 12c0 5.523-4.477 10-10 10S2 17.523 2 12a9.988 9.988 0 0 1 4.265-8.193zM11 12V2h2v10h-2z"/></symbol><symbol viewBox="0 0 24 24" id="qr-code-line"><path fill="none" d="M0 0h24v24H0z"/><path d="M16 17v-1h-3v-3h3v2h2v2h-1v2h-2v2h-2v-3h2v-1h1zm5 4h-4v-2h2v-2h2v4zM3 3h8v8H3V3zm2 2v4h4V5H5zm8-2h8v8h-8V3zm2 2v4h4V5h-4zM3 13h8v8H3v-8zm2 2v4h4v-4H5zm13-2h3v2h-3v-2zM6 6h2v2H6V6zm0 10h2v2H6v-2zM16 6h2v2h-2V6z"/></symbol><symbol viewBox="0 0 24 24" id="fingerprint-line"><path fill="none" d="M0 0h24v24H0z"/><path d="M17 13v1c0 2.77-.664 5.445-1.915 7.846l-.227.42-1.747-.974c1.16-2.08 1.81-4.41 1.882-6.836L15 14v-1h2zm-6-3h2v4l-.005.379a12.941 12.941 0 0 1-2.691 7.549l-.231.29-1.55-1.264a10.944 10.944 0 0 0 2.471-6.588L11 14v-4zm1-4a5 5 0 0 1 5 5h-2a3 3 0 0 0-6 0v3c0 2.235-.82 4.344-2.271 5.977l-.212.23-1.448-1.38a6.969 6.969 0 0 0 1.925-4.524L7 14v-3a5 5 0 0 1 5-5zm0-4a9 9 0 0 1 9 9v3c0 1.698-.202 3.37-.597 4.99l-.139.539-1.93-.526c.392-1.437.613-2.922.658-4.435L19 14v-3A7 7 0 0 0 7.808 5.394L6.383 3.968A8.962 8.962 0 0 1 12 2zM4.968 5.383l1.426 1.425a6.966 6.966 0 0 0-1.39 3.951L5 11 5.004 13c0 1.12-.264 2.203-.762 3.177l-.156.29-1.737-.992c.38-.665.602-1.407.646-2.183L3.004 13v-2a8.94 8.94 0 0 1 1.964-5.617z"/></symbol><symbol viewBox="0 0 24 24" id="book-line"><path fill="none" d="M0 0h24v24H0z"/><path d="M3 18.5V5a3 3 0 0 1 3-3h14a1 1 0 0 1 1 1v18a1 1 0 0 1-1 1H6.5A3.5 3.5 0 0 1 3 18.5zM19 20v-3H6.5a1.5 1.5 0 0 0 0 3H19zM5 15.337A3.486 3.486 0 0 1 6.5 15H19V4H6a1 1 0 0 0-1 1v10.337z"/></symbol><symbol viewBox="0 0 24 24" id="bold"><path fill="none" d="M0 0h24v24H0z"/><path d="M8 11h4.5a2.5 2.5 0 1 0 0-5H8v5zm10 4.5a4.5 4.5 0 0 1-4.5 4.5H6V4h6.5a4.5 4.5 0 0 1 3.256 7.606A4.498 4.498 0 0 1 18 15.5zM8 13v5h5.5a2.5 2.5 0 1 0 0-5H8z"/></symbol><symbol viewBox="0 0 24 24" id="italic"><path fill="none" d="M0 0h24v24H0z"/><path d="M15 20H7v-2h2.927l2.116-12H9V4h8v2h-2.927l-2.116 12H15z"/></symbol><symbol viewBox="0 0 24 24" id="heading"><path fill="none" d="M0 0h24v24H0z"/><path d="M17 11V4h2v17h-2v-8H7v8H5V4h2v7z"/></symbol><symbol viewBox="0 0 24 24" id="text"><path fill="none" d="M0 0h24v24H0z"/><path d="M13 6v15h-2V6H5V4h14v2z"/></symbol><symbol viewBox="0 0 24 24" id="font-color"><path fill="none" d="M0 0h24v24H0z"/><path d="M15.246 14H8.754l-1.6 4H5l6-15h2l6 15h-2.154l-1.6-4zm-.8-2L12 5.885 9.554 12h4.892zM3 20h18v2H3v-2z"/></symbol><symbol viewBox="0 0 24 24" id="underline"><path fill="none" d="M0 0h24v24H0z"/><path d="M8 3v9a4 4 0 1 0 8 0V3h2v9a6 6 0 1 1-12 0V3h2zM4 20h16v2H4v-2z"/></symbol><symbol viewBox="0 0 24 24" id="strikethrough"><path fill="none" d="M0 0h24v24H0z"/><path d="M17.154 14c.23.516.346 1.09.346 1.72 0 1.342-.524 2.392-1.571 3.147C14.88 19.622 13.433 20 11.586 20c-1.64 0-3.263-.381-4.87-1.144V16.6c1.52.877 3.075 1.316 4.666 1.316 2.551 0 3.83-.732 3.839-2.197a2.21 2.21 0 0 0-.648-1.603l-.12-.117H3v-2h18v2h-3.846zm-4.078-3H7.629a4.086 4.086 0 0 1-.481-.522C6.716 9.92 6.5 9.246 6.5 8.452c0-1.236.466-2.287 1.397-3.153C8.83 4.433 10.271 4 12.222 4c1.471 0 2.879.328 4.222.984v2.152c-1.2-.687-2.515-1.03-3.946-1.03-2.48 0-3.719.782-3.719 2.346 0 .42.218.786.654 1.099.436.313.974.562 1.613.75.62.18 1.297.414 2.03.699z"/></symbol><symbol viewBox="0 0 24 24" id="align-center"><path fill="none" d="M0 0h24v24H0z"/><path d="M3 4h18v2H3V4zm2 15h14v2H5v-2zm-2-5h18v2H3v-2zm2-5h14v2H5V9z"/></symbol><symbol viewBox="0 0 24 24" id="align-right"><path fill="none" d="M0 0h24v24H0z"/><path d="M3 4h18v2H3V4zm4 15h14v2H7v-2zm-4-5h18v2H3v-2zm4-5h14v2H7V9z"/></symbol><symbol viewBox="0 0 24 24" id="align-left"><path fill="none" d="M0 0h24v24H0z"/><path d="M3 4h18v2H3V4zm0 15h14v2H3v-2zm0-5h18v2H3v-2zm0-5h14v2H3V9z"/></symbol><symbol viewBox="0 0 24 24" id="price-tag-3-line"><path fill="none" d="M0 0h24v24H0z"/><path d="M10.9 2.1l9.899 1.415 1.414 9.9-9.192 9.192a1 1 0 0 1-1.414 0l-9.9-9.9a1 1 0 0 1 0-1.414L10.9 2.1zm.707 2.122L3.828 12l8.486 8.485 7.778-7.778-1.06-7.425-7.425-1.06zm2.12 6.364a2 2 0 1 1 2.83-2.829 2 2 0 0 1-2.83 2.829z"/></symbol><symbol viewBox="0 0 24 24" id="heart-3-line"><path fill="none" d="M0 0H24V24H0z"/><path d="M16.5 3C19.538 3 22 5.5 22 9c0 7-7.5 11-10 12.5C9.5 20 2 16 2 9c0-3.5 2.5-6 5.5-6C9.36 3 11 4 12 5c1-1 2.64-2 4.5-2zm-3.566 15.604c.881-.556 1.676-1.109 2.42-1.701C18.335 14.533 20 11.943 20 9c0-2.36-1.537-4-3.5-4-1.076 0-2.24.57-3.086 1.414L12 7.828l-1.414-1.414C9.74 5.57 8.576 5 7.5 5 5.56 5 4 6.656 4 9c0 2.944 1.666 5.533 4.645 7.903.745.592 1.54 1.145 2.421 1.7.299.189.595.37.934.572.339-.202.635-.383.934-.571z"/></symbol><symbol viewBox="0 0 24 24" id="heart-3-fill"><path fill="none" d="M0 0H24V24H0z"/><path d="M16.5 3C19.538 3 22 5.5 22 9c0 7-7.5 11-10 12.5C9.5 20 2 16 2 9c0-3.5 2.5-6 5.5-6C9.36 3 11 4 12 5c1-1 2.64-2 4.5-2z"/></symbol><symbol viewBox="0 0 24 24" id="youtube-line"><path fill="none" d="M0 0h24v24H0z"/><path d="M19.606 6.995c-.076-.298-.292-.523-.539-.592C18.63 6.28 16.5 6 12 6s-6.628.28-7.069.403c-.244.068-.46.293-.537.592C4.285 7.419 4 9.196 4 12s.285 4.58.394 5.006c.076.297.292.522.538.59C5.372 17.72 7.5 18 12 18s6.629-.28 7.069-.403c.244-.068.46-.293.537-.592C19.715 16.581 20 14.8 20 12s-.285-4.58-.394-5.005zm1.937-.497C22 8.28 22 12 22 12s0 3.72-.457 5.502c-.254.985-.997 1.76-1.938 2.022C17.896 20 12 20 12 20s-5.893 0-7.605-.476c-.945-.266-1.687-1.04-1.938-2.022C2 15.72 2 12 2 12s0-3.72.457-5.502c.254-.985.997-1.76 1.938-2.022C6.107 4 12 4 12 4s5.896 0 7.605.476c.945.266 1.687 1.04 1.938 2.022zM10 15.5v-7l6 3.5-6 3.5z"/></symbol><symbol viewBox="0 0 24 24" id="map-pin-2-line"><path fill="none" d="M0 0h24v24H0z"/><path d="M12 23.728l-6.364-6.364a9 9 0 1 1 12.728 0L12 23.728zm4.95-7.778a7 7 0 1 0-9.9 0L12 20.9l4.95-4.95zM12 13a2 2 0 1 1 0-4 2 2 0 0 1 0 4z"/></symbol><symbol viewBox="0 0 24 24" id="pushpin-line"><path fill="none" d="M0 0h24v24H0z"/><path d="M13.828 1.686l8.486 8.486-1.415 1.414-.707-.707-4.242 4.242-.707 3.536-1.415 1.414-4.242-4.243-4.95 4.95-1.414-1.414 4.95-4.95-4.243-4.242 1.414-1.415L8.88 8.05l4.242-4.242-.707-.707 1.414-1.415zm.708 3.536l-4.671 4.67-2.822.565 6.5 6.5.564-2.822 4.671-4.67-4.242-4.243z"/></symbol><symbol viewBox="0 0 24 24" id="pushpin-fill"><path fill="none" d="M0 0h24v24H0z"/><path d="M22.314 10.172l-1.415 1.414-.707-.707-4.242 4.242-.707 3.536-1.415 1.414-4.242-4.243-4.95 4.95-1.414-1.414 4.95-4.95-4.243-4.242 1.414-1.415L8.88 8.05l4.242-4.242-.707-.707 1.414-1.415z"/></symbol><symbol viewBox="0 0 24 24" id="image-2-line"><path fill="none" d="M0 0h24v24H0z"/><path d="M5 11.1l2-2 5.5 5.5 3.5-3.5 3 3V5H5v6.1zm0 2.829V19h3.1l2.986-2.985L7 11.929l-2 2zM10.929 19H19v-2.071l-3-3L10.929 19zM4 3h16a1 1 0 0 1 1 1v16a1 1 0 0 1-1 1H4a1 1 0 0 1-1-1V4a1 1 0 0 1 1-1zm11.5 7a1.5 1.5 0 1 1 0-3 1.5 1.5 0 0 1 0 3z"/></symbol><symbol viewBox="0 0 24 24" id="image-add-line"><path fill="none" d="M0 0h24v24H0z"/><path d="M21 15v3h3v2h-3v3h-2v-3h-3v-2h3v-3h2zm.008-12c.548 0 .992.445.992.993V13h-2V5H4v13.999L14 9l3 3v2.829l-3-3L6.827 19H14v2H2.992A.993.993 0 0 1 2 20.007V3.993A1 1 0 0 1 2.992 3h18.016zM8 7a2 2 0 1 1 0 4 2 2 0 0 1 0-4z"/></symbol><symbol viewBox="0 0 24 24" id="camera-line"><path fill="none" d="M0 0h24v24H0z"/><path d="M9.828 5l-2 2H4v12h16V7h-3.828l-2-2H9.828zM9 3h6l2 2h4a1 1 0 0 1 1 1v14a1 1 0 0 1-1 1H3a1 1 0 0 1-1-1V6a1 1 0 0 1 1-1h4l2-2zm3 15a5.5 5.5 0 1 1 0-11 5.5 5.5 0 0 1 0 11zm0-2a3.5 3.5 0 1 0 0-7 3.5 3.5 0 0 0 0 7z"/></symbol><symbol viewBox="0 0 24 24" id="notification-3-line"><path fill="none" d="M0 0h24v24H0z"/><path d="M20 17h2v2H2v-2h2v-7a8 8 0 1 1 16 0v7zm-2 0v-7a6 6 0 1 0-12 0v7h12zm-9 4h6v2H9v-2z"/></symbol><symbol viewBox="0 0 24 24" id="notification-3-fill"><path fill="none" d="M0 0h24v24H0z"/><path d="M20 17h2v2H2v-2h2v-7a8 8 0 1 1 16 0v7zM9 21h6v2H9v-2z"/></symbol><symbol viewBox="0 0 24 24" id="menu-2-line"><path fill="none" d="M0 0h24v24H0z"/><path d="M3 4h18v2H3V4zm0 7h12v2H3v-2zm0 7h18v2H3v-2z"/></symbol><symbol viewBox="0 0 24 24" id="menu-4-line"><path fill="none" d="M0 0h24v24H0z"/><path d="M16 18v2H5v-2h11zm5-7v2H3v-2h18zm-2-7v2H8V4h11z"/></symbol><symbol viewBox="0 0 24 24" id="more-line"><path fill="none" d="M0 0h24v24H0z"/><path d="M4.5 10.5c-.825 0-1.5.675-1.5 1.5s.675 1.5 1.5 1.5S6 12.825 6 12s-.675-1.5-1.5-1.5zm15 0c-.825 0-1.5.675-1.5 1.5s.675 1.5 1.5 1.5S21 12.825 21 12s-.675-1.5-1.5-1.5zm-7.5 0c-.825 0-1.5.675-1.5 1.5s.675 1.5 1.5 1.5 1.5-.675 1.5-1.5-.675-1.5-1.5-1.5z"/></symbol><symbol viewBox="0 0 24 24" id="star-line"><path fill="none" d="M0 0h24v24H0z"/><path d="M12 18.26l-7.053 3.948 1.575-7.928L.587 8.792l8.027-.952L12 .5l3.386 7.34 8.027.952-5.935 5.488 1.575 7.928L12 18.26zm0-2.292l4.247 2.377-.949-4.773 3.573-3.305-4.833-.573L12 5.275l-2.038 4.42-4.833.572 3.573 3.305-.949 4.773L12 15.968z"/></symbol><symbol viewBox="0 0 24 24" id="star-fill"><path fill="none" d="M0 0h24v24H0z"/><path d="M12 18.26l-7.053 3.948 1.575-7.928L.587 8.792l8.027-.952L12 .5l3.386 7.34 8.027.952-5.935 5.488 1.575 7.928z"/></symbol><symbol viewBox="0 0 24 24" id="settings-line"><path fill="none" d="M0 0h24v24H0z"/><path d="M12 1l9.5 5.5v11L12 23l-9.5-5.5v-11L12 1zm0 2.311L4.5 7.653v8.694l7.5 4.342 7.5-4.342V7.653L12 3.311zM12 16a4 4 0 1 1 0-8 4 4 0 0 1 0 8zm0-2a2 2 0 1 0 0-4 2 2 0 0 0 0 4z"/></symbol><symbol viewBox="0 0 24 24" id="alert-line"><path fill="none" d="M0 0h24v24H0z"/><path d="M12.866 3l9.526 16.5a1 1 0 0 1-.866 1.5H2.474a1 1 0 0 1-.866-1.5L11.134 3a1 1 0 0 1 1.732 0zm-8.66 16h15.588L12 5.5 4.206 19zM11 16h2v2h-2v-2zm0-7h2v5h-2V9z"/></symbol><symbol viewBox="0 0 24 24" id="checkbox-circle-line"><path fill="none" d="M0 0h24v24H0z"/><path d="M12 22C6.477 22 2 17.523 2 12S6.477 2 12 2s10 4.477 10 10-4.477 10-10 10zm0-2a8 8 0 1 0 0-16 8 8 0 0 0 0 16zm-.997-4L6.76 11.757l1.414-1.414 2.829 2.829 5.656-5.657 1.415 1.414L11.003 16z"/></symbol><symbol viewBox="0 0 24 24" id="checkbox-blank-circle-fill"><path fill="none" d="M0 0h24v24H0z"/><path d="undefined"/></symbol><symbol viewBox="0 0 24 24" id="close-circle-line"><path fill="none" d="M0 0h24v24H0z"/><path d="M12 22C6.477 22 2 17.523 2 12S6.477 2 12 2s10 4.477 10 10-4.477 10-10 10zm0-2a8 8 0 1 0 0-16 8 8 0 0 0 0 16zm0-9.414l2.828-2.829 1.415 1.415L13.414 12l2.829 2.828-1.415 1.415L12 13.414l-2.828 2.829-1.415-1.415L10.586 12 7.757 9.172l1.415-1.415L12 10.586z"/></symbol><symbol viewBox="0 0 24 24" id="check-line"><path fill="none" d="M0 0h24v24H0z"/><path d="M10 15.172l9.192-9.193 1.415 1.414L10 18l-6.364-6.364 1.414-1.414z"/></symbol><symbol viewBox="0 0 24 24" id="check-double-line"><path fill="none" d="M0 0h24v24H0z"/><path d="M11.602 13.76l1.412 1.412 8.466-8.466 1.414 1.414-9.88 9.88-6.364-6.364 1.414-1.414 2.125 2.125 1.413 1.412zm.002-2.828l4.952-4.953 1.41 1.41-4.952 4.953-1.41-1.41zm-2.827 5.655L7.364 18 1 11.636l1.414-1.414 1.413 1.413-.001.001 4.951 4.951z"/></symbol><symbol viewBox="0 0 24 24" id="arrow-left-s-line"><path fill="none" d="M0 0h24v24H0z"/><path d="M10.828 12l4.95 4.95-1.414 1.414L8 12l6.364-6.364 1.414 1.414z"/></symbol><symbol viewBox="0 0 24 24" id="arrow-right-s-line"><path fill="none" d="M0 0h24v24H0z"/><path d="M13.172 12l-4.95-4.95 1.414-1.414L16 12l-6.364 6.364-1.414-1.414z"/></symbol><symbol viewBox="0 0 24 24" id="arrow-go-back-line"><path fill="none" d="M0 0h24v24H0z"/><path d="M5.828 7l2.536 2.536L6.95 10.95 2 6l4.95-4.95 1.414 1.414L5.828 5H13a8 8 0 1 1 0 16H4v-2h9a6 6 0 1 0 0-12H5.828z"/></symbol><symbol viewBox="0 0 24 24" id="arrow-go-forward-line"><path fill="none" d="M0 0h24v24H0z"/><path d="M18.172 7H11a6 6 0 1 0 0 12h9v2h-9a8 8 0 1 1 0-16h7.172l-2.536-2.536L17.05 1.05 22 6l-4.95 4.95-1.414-1.414L18.172 7z"/></symbol><symbol viewBox="0 0 24 24" id="shield-line"><path fill="none" d="M0 0h24v24H0z"/><path d="M3.783 2.826L12 1l8.217 1.826a1 1 0 0 1 .783.976v9.987a6 6 0 0 1-2.672 4.992L12 23l-6.328-4.219A6 6 0 0 1 3 13.79V3.802a1 1 0 0 1 .783-.976zM5 4.604v9.185a4 4 0 0 0 1.781 3.328L12 20.597l5.219-3.48A4 4 0 0 0 19 13.79V4.604L12 3.05 5 4.604z"/></symbol><symbol viewBox="0 0 24 24" id="shield-check-line"><path fill="none" d="M0 0H24V24H0z"/><path d="M12 1l8.217 1.826c.457.102.783.507.783.976v9.987c0 2.006-1.003 3.88-2.672 4.992L12 23l-6.328-4.219C4.002 17.668 3 15.795 3 13.79V3.802c0-.469.326-.874.783-.976L12 1zm0 2.049L5 4.604v9.185c0 1.337.668 2.586 1.781 3.328L12 20.597l5.219-3.48C18.332 16.375 19 15.127 19 13.79V4.604L12 3.05zm4.452 5.173l1.415 1.414L11.503 16 7.26 11.757l1.414-1.414 2.828 2.828 4.95-4.95z"/></symbol><symbol viewBox="0 0 24 24" id="delete-bin-line"><path fill="none" d="M0 0h24v24H0z"/><path d="M17 6h5v2h-2v13a1 1 0 0 1-1 1H5a1 1 0 0 1-1-1V8H2V6h5V3a1 1 0 0 1 1-1h8a1 1 0 0 1 1 1v3zm1 2H6v12h12V8zm-9 3h2v6H9v-6zm4 0h2v6h-2v-6zM9 4v2h6V4H9z"/></symbol><symbol viewBox="0 0 24 24" id="lock-2-line"><path fill="none" d="M0 0h24v24H0z"/><path d="M6 8V7a6 6 0 1 1 12 0v1h2a1 1 0 0 1 1 1v12a1 1 0 0 1-1 1H4a1 1 0 0 1-1-1V9a1 1 0 0 1 1-1h2zm13 2H5v10h14V10zm-8 5.732a2 2 0 1 1 2 0V18h-2v-2.268zM8 8h8V7a4 4 0 1 0-8 0v1z"/></symbol><symbol viewBox="0 0 24 24" id="search-line"><path fill="none" d="M0 0h24v24H0z"/><path d="M18.031 16.617l4.283 4.282-1.415 1.415-4.282-4.283A8.96 8.96 0 0 1 11 20c-4.968 0-9-4.032-9-9s4.032-9 9-9 9 4.032 9 9a8.96 8.96 0 0 1-1.969 5.617zm-2.006-.742A6.977 6.977 0 0 0 18 11c0-3.868-3.133-7-7-7-3.868 0-7 3.132-7 7 0 3.867 3.132 7 7 7a6.977 6.977 0 0 0 4.875-1.975l.15-.15z"/></symbol><symbol viewBox="0 0 24 24" id="share-forward-line"><path fill="none" d="M0 0h24v24H0z"/><path d="M13 14h-2a8.999 8.999 0 0 0-7.968 4.81A10.136 10.136 0 0 1 3 18C3 12.477 7.477 8 13 8V2.5L23.5 11 13 19.5V14zm-2-2h4v3.308L20.321 11 15 6.692V10h-2a7.982 7.982 0 0 0-6.057 2.773A10.988 10.988 0 0 1 11 12z"/></symbol><symbol viewBox="0 0 24 24" id="share-line"><path fill="none" d="M0 0h24v24H0z"/><path d="M13.12 17.023l-4.199-2.29a4 4 0 1 1 0-5.465l4.2-2.29a4 4 0 1 1 .959 1.755l-4.2 2.29a4.008 4.008 0 0 1 0 1.954l4.199 2.29a4 4 0 1 1-.959 1.755zM6 14a2 2 0 1 0 0-4 2 2 0 0 0 0 4zm11-6a2 2 0 1 0 0-4 2 2 0 0 0 0 4zm0 12a2 2 0 1 0 0-4 2 2 0 0 0 0 4z"/></symbol><symbol viewBox="0 0 24 24" id="thumb-up-line"><path fill="none" d="M0 0h24v24H0z"/><path d="M14.6 8H21a2 2 0 0 1 2 2v2.104a2 2 0 0 1-.15.762l-3.095 7.515a1 1 0 0 1-.925.619H2a1 1 0 0 1-1-1V10a1 1 0 0 1 1-1h3.482a1 1 0 0 0 .817-.423L11.752.85a.5.5 0 0 1 .632-.159l1.814.907a2.5 2.5 0 0 1 1.305 2.853L14.6 8zM7 10.588V19h11.16L21 12.104V10h-6.4a2 2 0 0 1-1.938-2.493l.903-3.548a.5.5 0 0 0-.261-.571l-.661-.33-4.71 6.672c-.25.354-.57.644-.933.858zM5 11H3v8h2v-8z"/></symbol><symbol viewBox="0 0 24 24" id="thumb-down-line"><path fill="none" d="M0 0h24v24H0z"/><path d="M9.4 16H3a2 2 0 0 1-2-2v-2.104a2 2 0 0 1 .15-.762L4.246 3.62A1 1 0 0 1 5.17 3H22a1 1 0 0 1 1 1v10a1 1 0 0 1-1 1h-3.482a1 1 0 0 0-.817.423l-5.453 7.726a.5.5 0 0 1-.632.159L9.802 22.4a2.5 2.5 0 0 1-1.305-2.853L9.4 16zm7.6-2.588V5H5.84L3 11.896V14h6.4a2 2 0 0 1 1.938 2.493l-.903 3.548a.5.5 0 0 0 .261.571l.661.33 4.71-6.672c.25-.354.57-.644.933-.858zM19 13h2V5h-2v8z"/></symbol><symbol viewBox="0 0 24 24" id="thumb-up-fill"><path fill="none" d="M0 0h24v24H0z"/><path d="M2 9h3v12H2a1 1 0 0 1-1-1V10a1 1 0 0 1 1-1zm5.293-1.293l6.4-6.4a.5.5 0 0 1 .654-.047l.853.64a1.5 1.5 0 0 1 .553 1.57L14.6 8H21a2 2 0 0 1 2 2v2.104a2 2 0 0 1-.15.762l-3.095 7.515a1 1 0 0 1-.925.619H8a1 1 0 0 1-1-1V8.414a1 1 0 0 1 .293-.707z"/></symbol><symbol viewBox="0 0 24 24" id="thumb-down-fill"><path fill="none" d="M0 0h24v24H0z"/><path d="M22 15h-3V3h3a1 1 0 0 1 1 1v10a1 1 0 0 1-1 1zm-5.293 1.293l-6.4 6.4a.5.5 0 0 1-.654.047L8.8 22.1a1.5 1.5 0 0 1-.553-1.57L9.4 16H3a2 2 0 0 1-2-2v-2.104a2 2 0 0 1 .15-.762L4.246 3.62A1 1 0 0 1 5.17 3H16a1 1 0 0 1 1 1v11.586a1 1 0 0 1-.293.707z"/></symbol><symbol viewBox="0 0 24 24" id="toggle-line"><path fill="none" d="M0 0h24v24H0z"/><path d="M8 7a5 5 0 1 0 0 10h8a5 5 0 0 0 0-10H8zm0-2h8a7 7 0 0 1 0 14H8A7 7 0 0 1 8 5zm0 10a3 3 0 1 1 0-6 3 3 0 0 1 0 6z"/></symbol><symbol viewBox="0 0 24 24" id="toggle-fill"><path fill="none" d="M0 0h24v24H0z"/><path d="M8 5h8a7 7 0 0 1 0 14H8A7 7 0 0 1 8 5zm8 10a3 3 0 1 0 0-6 3 3 0 0 0 0 6z"/></symbol><symbol viewBox="0 0 24 24" id="loader-line"><path fill="none" d="M0 0h24v24H0z"/><path d="M12 2a1 1 0 0 1 1 1v3a1 1 0 0 1-2 0V3a1 1 0 0 1 1-1zm0 15a1 1 0 0 1 1 1v3a1 1 0 0 1-2 0v-3a1 1 0 0 1 1-1zm8.66-10a1 1 0 0 1-.366 1.366l-2.598 1.5a1 1 0 1 1-1-1.732l2.598-1.5A1 1 0 0 1 20.66 7zM7.67 14.5a1 1 0 0 1-.366 1.366l-2.598 1.5a1 1 0 1 1-1-1.732l2.598-1.5a1 1 0 0 1 1.366.366zM20.66 17a1 1 0 0 1-1.366.366l-2.598-1.5a1 1 0 0 1 1-1.732l2.598 1.5A1 1 0 0 1 20.66 17zM7.67 9.5a1 1 0 0 1-1.366.366l-2.598-1.5a1 1 0 1 1 1-1.732l2.598 1.5A1 1 0 0 1 7.67 9.5z"/></symbol><symbol viewBox="0 0 24 24" id="user-line"><path fill="none" d="M0 0h24v24H0z"/><path d="M4 22a8 8 0 1 1 16 0h-2a6 6 0 1 0-12 0H4zm8-9c-3.315 0-6-2.685-6-6s2.685-6 6-6 6 2.685 6 6-2.685 6-6 6zm0-2c2.21 0 4-1.79 4-4s-1.79-4-4-4-4 1.79-4 4 1.79 4 4 4z"/></symbol><symbol viewBox="0 0 24 24" id="account-circle-line"><path fill="none" d="M0 0h24v24H0z"/><path d="M12 22C6.477 22 2 17.523 2 12S6.477 2 12 2s10 4.477 10 10-4.477 10-10 10zm-4.987-3.744A7.966 7.966 0 0 0 12 20c1.97 0 3.773-.712 5.167-1.892A6.979 6.979 0 0 0 12.16 16a6.981 6.981 0 0 0-5.147 2.256zM5.616 16.82A8.975 8.975 0 0 1 12.16 14a8.972 8.972 0 0 1 6.362 2.634 8 8 0 1 0-12.906.187zM12 13a4 4 0 1 1 0-8 4 4 0 0 1 0 8zm0-2a2 2 0 1 0 0-4 2 2 0 0 0 0 4z"/></symbol><symbol viewBox="0 0 24 24" id="account-circle-fill"><path fill="none" d="M0 0h24v24H0z"/><path d="M12 2c5.52 0 10 4.48 10 10s-4.48 10-10 10S2 17.52 2 12 6.48 2 12 2zM6.023 15.416C7.491 17.606 9.695 19 12.16 19c2.464 0 4.669-1.393 6.136-3.584A8.968 8.968 0 0 0 12.16 13a8.968 8.968 0 0 0-6.137 2.416zM12 11a3 3 0 1 0 0-6 3 3 0 0 0 0 6z"/></symbol><symbol viewBox="0 0 24 24" id="user-add-line"><path fill="none" d="M0 0h24v24H0z"/><path d="M14 14.252v2.09A6 6 0 0 0 6 22l-2-.001a8 8 0 0 1 10-7.748zM12 13c-3.315 0-6-2.685-6-6s2.685-6 6-6 6 2.685 6 6-2.685 6-6 6zm0-2c2.21 0 4-1.79 4-4s-1.79-4-4-4-4 1.79-4 4 1.79 4 4 4zm6 6v-3h2v3h3v2h-3v3h-2v-3h-3v-2h3z"/></symbol><symbol viewBox="0 0 24 24" id="user-follow-line"><path fill="none" d="M0 0h24v24H0z"/><path d="M14 14.252v2.09A6 6 0 0 0 6 22l-2-.001a8 8 0 0 1 10-7.748zM12 13c-3.315 0-6-2.685-6-6s2.685-6 6-6 6 2.685 6 6-2.685 6-6 6zm0-2c2.21 0 4-1.79 4-4s-1.79-4-4-4-4 1.79-4 4 1.79 4 4 4zm5.793 8.914l3.535-3.535 1.415 1.414-4.95 4.95-3.536-3.536 1.415-1.414 2.12 2.121z"/></symbol><symbol viewBox="0 0 24 24" id="user-unfollow-line"><path fill="none" d="M0 0h24v24H0z"/><path d="M14 14.252v2.09A6 6 0 0 0 6 22l-2-.001a8 8 0 0 1 10-7.748zM12 13c-3.315 0-6-2.685-6-6s2.685-6 6-6 6 2.685 6 6-2.685 6-6 6zm0-2c2.21 0 4-1.79 4-4s-1.79-4-4-4-4 1.79-4 4 1.79 4 4 4zm7 6.586l2.121-2.122 1.415 1.415L20.414 19l2.122 2.121-1.415 1.415L19 20.414l-2.121 2.122-1.415-1.415L17.586 19l-2.122-2.121 1.415-1.415L19 17.586z"/></symbol><symbol viewBox="0 0 24 24" id="user-settings-line"><path fill="none" d="M0 0h24v24H0z"/><path d="M12 14v2a6 6 0 0 0-6 6H4a8 8 0 0 1 8-8zm0-1c-3.315 0-6-2.685-6-6s2.685-6 6-6 6 2.685 6 6-2.685 6-6 6zm0-2c2.21 0 4-1.79 4-4s-1.79-4-4-4-4 1.79-4 4 1.79 4 4 4zm2.595 7.812a3.51 3.51 0 0 1 0-1.623l-.992-.573 1-1.732.992.573A3.496 3.496 0 0 1 17 14.645V13.5h2v1.145c.532.158 1.012.44 1.405.812l.992-.573 1 1.732-.992.573a3.51 3.51 0 0 1 0 1.622l.992.573-1 1.732-.992-.573a3.496 3.496 0 0 1-1.405.812V22.5h-2v-1.145a3.496 3.496 0 0 1-1.405-.812l-.992.573-1-1.732.992-.572zM18 19.5a1.5 1.5 0 1 0 0-3 1.5 1.5 0 0 0 0 3z"/></symbol><symbol viewBox="0 0 24 24" id="admin-fill"><path fill="none" d="M0 0h24v24H0z"/><path d="M12 14v8H4a8 8 0 0 1 8-8zm0-1c-3.315 0-6-2.685-6-6s2.685-6 6-6 6 2.685 6 6-2.685 6-6 6zm9 4h1v5h-8v-5h1v-1a3 3 0 0 1 6 0v1zm-2 0v-1a1 1 0 0 0-2 0v1h2z"/></symbol><symbol viewBox="0 0 24 24" id="team-line"><path fill="none" d="M0 0h24v24H0z"/><path d="M12 11a5 5 0 0 1 5 5v6h-2v-6a3 3 0 0 0-2.824-2.995L12 13a3 3 0 0 0-2.995 2.824L9 16v6H7v-6a5 5 0 0 1 5-5zm-6.5 3c.279 0 .55.033.81.094a5.947 5.947 0 0 0-.301 1.575L6 16v.086a1.492 1.492 0 0 0-.356-.08L5.5 16a1.5 1.5 0 0 0-1.493 1.356L4 17.5V22H2v-4.5A3.5 3.5 0 0 1 5.5 14zm13 0a3.5 3.5 0 0 1 3.5 3.5V22h-2v-4.5a1.5 1.5 0 0 0-1.356-1.493L18.5 16c-.175 0-.343.03-.5.085V16c0-.666-.108-1.306-.309-1.904.259-.063.53-.096.809-.096zm-13-6a2.5 2.5 0 1 1 0 5 2.5 2.5 0 0 1 0-5zm13 0a2.5 2.5 0 1 1 0 5 2.5 2.5 0 0 1 0-5zm-13 2a.5.5 0 1 0 0 1 .5.5 0 0 0 0-1zm13 0a.5.5 0 1 0 0 1 .5.5 0 0 0 0-1zM12 2a4 4 0 1 1 0 8 4 4 0 0 1 0-8zm0 2a2 2 0 1 0 0 4 2 2 0 0 0 0-4z"/></symbol><symbol viewBox="0 0 24 24" id="contacts-line"><path fill="none" d="M0 0h24v24H0z"/><path d="M19 7h5v2h-5V7zm-2 5h7v2h-7v-2zm3 5h4v2h-4v-2zM2 22a8 8 0 1 1 16 0h-2a6 6 0 1 0-12 0H2zm8-9c-3.315 0-6-2.685-6-6s2.685-6 6-6 6 2.685 6 6-2.685 6-6 6zm0-2c2.21 0 4-1.79 4-4s-1.79-4-4-4-4 1.79-4 4 1.79 4 4 4z"/></symbol><symbol viewBox="0 0 24 24" id="emotion-happy-line"><path fill="none" d="M0 0h24v24H0z"/><path d="M12 22C6.477 22 2 17.523 2 12S6.477 2 12 2s10 4.477 10 10-4.477 10-10 10zm0-2a8 8 0 1 0 0-16 8 8 0 0 0 0 16zm-5-7h2a3 3 0 0 0 6 0h2a5 5 0 0 1-10 0zm1-2a1.5 1.5 0 1 1 0-3 1.5 1.5 0 0 1 0 3zm8 0a1.5 1.5 0 1 1 0-3 1.5 1.5 0 0 1 0 3z"/></symbol><symbol viewBox="0 0 24 24" id="sun-line"><path fill="none" d="M0 0h24v24H0z"/><path d="M12 18a6 6 0 1 1 0-12 6 6 0 0 1 0 12zm0-2a4 4 0 1 0 0-8 4 4 0 0 0 0 8zM11 1h2v3h-2V1zm0 19h2v3h-2v-3zM3.515 4.929l1.414-1.414L7.05 5.636 5.636 7.05 3.515 4.93zM16.95 18.364l1.414-1.414 2.121 2.121-1.414 1.414-2.121-2.121zm2.121-14.85l1.414 1.415-2.121 2.121-1.414-1.414 2.121-2.121zM5.636 16.95l1.414 1.414-2.121 2.121-1.414-1.414 2.121-2.121zM23 11v2h-3v-2h3zM4 11v2H1v-2h3z"/></symbol><symbol viewBox="0 0 24 24" id="moon-line"><path fill="none" d="M0 0h24v24H0z"/><path d="M10 7a7 7 0 0 0 12 4.9v.1c0 5.523-4.477 10-10 10S2 17.523 2 12 6.477 2 12 2h.1A6.979 6.979 0 0 0 10 7zm-6 5a8 8 0 0 0 15.062 3.762A9 9 0 0 1 8.238 4.938 7.999 7.999 0 0 0 4 12z"/></symbol><symbol viewBox="0 0 24 24" id="sun-fill"><path fill="none" d="M0 0h24v24H0z"/><path d="M12 18a6 6 0 1 1 0-12 6 6 0 0 1 0 12zM11 1h2v3h-2V1zm0 19h2v3h-2v-3zM3.515 4.929l1.414-1.414L7.05 5.636 5.636 7.05 3.515 4.93zM16.95 18.364l1.414-1.414 2.121 2.121-1.414 1.414-2.121-2.121zm2.121-14.85l1.414 1.415-2.121 2.121-1.414-1.414 2.121-2.121zM5.636 16.95l1.414 1.414-2.121 2.121-1.414-1.414 2.121-2.121zM23 11v2h-3v-2h3zM4 11v2H1v-2h3z"/></symbol><symbol viewBox="0 0 24 24" id="moon-fill"><path fill="none" d="M0 0h24v24H0z"/><path d="M11.38 2.019a7.5 7.5 0 1 0 10.6 10.6C21.662 17.854 17.316 22 12.001 22 6.477 22 2 17.523 2 12c0-5.315 4.146-9.661 9.38-9.981z"/></symbol><symbol viewBox="0 0 24 24" id="moon-clear-line"><path fill="none" d="M0 0h24v24H0z"/><path d="M10 6a8 8 0 0 0 11.955 6.956C21.474 18.03 17.2 22 12 22 6.477 22 2 17.523 2 12c0-5.2 3.97-9.474 9.044-9.955A7.963 7.963 0 0 0 10 6zm-6 6a8 8 0 0 0 8 8 8.006 8.006 0 0 0 6.957-4.045c-.316.03-.636.045-.957.045-5.523 0-10-4.477-10-10 0-.321.015-.64.045-.957A8.006 8.006 0 0 0 4 12zm14.164-9.709L19 2.5v1l-.836.209a2 2 0 0 0-1.455 1.455L16.5 6h-1l-.209-.836a2 2 0 0 0-1.455-1.455L13 3.5v-1l.836-.209A2 2 0 0 0 15.29.836L15.5 0h1l.209.836a2 2 0 0 0 1.455 1.455zm5 5L24 7.5v1l-.836.209a2 2 0 0 0-1.455 1.455L21.5 11h-1l-.209-.836a2 2 0 0 0-1.455-1.455L18 8.5v-1l.836-.209a2 2 0 0 0 1.455-1.455L20.5 5h1l.209.836a2 2 0 0 0 1.455 1.455z"/></symbol><symbol viewBox="0 0 24 24" id="moon-clear-fill"><path fill="none" d="M0 0h24v24H0z"/><path d="M9.822 2.238a9 9 0 0 0 11.94 11.94C20.768 18.654 16.775 22 12 22 6.477 22 2 17.523 2 12c0-4.775 3.346-8.768 7.822-9.762zm8.342.053L19 2.5v1l-.836.209a2 2 0 0 0-1.455 1.455L16.5 6h-1l-.209-.836a2 2 0 0 0-1.455-1.455L13 3.5v-1l.836-.209A2 2 0 0 0 15.29.836L15.5 0h1l.209.836a2 2 0 0 0 1.455 1.455zm5 5L24 7.5v1l-.836.209a2 2 0 0 0-1.455 1.455L21.5 11h-1l-.209-.836a2 2 0 0 0-1.455-1.455L18 8.5v-1l.836-.209a2 2 0 0 0 1.455-1.455L20.5 5h1l.209.836a2 2 0 0 0 1.455 1.455z"/></symbol><symbol viewBox="0 0 24 24" id="key-2-line"><path fill="none" d="M0 0h24v24H0z"/><path d="M10.758 11.828l7.849-7.849 1.414 1.414-1.414 1.415 2.474 2.474-1.414 1.415-2.475-2.475-1.414 1.414 2.121 2.121-1.414 1.415-2.121-2.122-2.192 2.192a5.002 5.002 0 0 1-7.708 6.294 5 5 0 0 1 6.294-7.708zm-.637 6.293A3 3 0 1 0 5.88 13.88a3 3 0 0 0 4.242 4.242z"/></symbol><symbol viewBox="0 0 24 24" id="key-2-fill"><path fill="none" d="M0 0h24v24H0z"/><path d="M10.313 11.566l7.94-7.94 2.121 2.121-1.414 1.414 2.121 2.121-3.535 3.536-2.121-2.121-2.99 2.99a5.002 5.002 0 0 1-7.97 5.849 5 5 0 0 1 5.848-7.97zm-.899 5.848a2 2 0 1 0-2.828-2.828 2 2 0 0 0 2.828 2.828z"/></symbol></svg>